<svg id="visual" viewBox="0 0 350 350" width="350" height="350" xmlns="http://www.w3.org/2000/svg" xmlns:xlink="http://www.w3.org/1999/xlink" version="1.1"><path d="M0 341L14.7 338C29.3 335 58.7 329 87.8 327.5C117 326 146 329 175.2 332.8C204.3 336.7 233.7 341.3 262.8 334C292 326.7 321 307.3 335.5 297.7L350 288L350 351L335.5 351C321 351 292 351 262.8 351C233.7 351 204.3 351 175.2 351C146 351 117 351 87.8 351C58.7 351 29.3 351 14.7 351L0 351Z" fill="#ffffff" stroke-linecap="round" stroke-linejoin="miter"></path></svg>